<?xml version="1.0" encoding="UTF-8"?>
<!-- Generated by @neplex/vectorizer (Using visioncortex VTracer) -->
<svg version="1.1" xmlns="http://www.w3.org/2000/svg" width="1024" height="1024">

<path d="M0,0 L197,375 L-104,538 L-298,162 L-14,8 Z" fill="#1E2E3C" transform="translate(604,231)"/>
<path d="M0,0 L43,50 L-173,166 L4,510 L-243,216 L-3,2 Z" fill="#1F2D3A" transform="translate(457,220)"/>
<path d="M0,0 L60,56 L142,45 L86,107 L97,187 L39,131 L-42,142 L13,82 L0,4 Z" fill="#FBFCFC" transform="translate(504,408)"/>
<path d="M0,0 L56,103 L18,121 L-34,21 L-10,6 Z" fill="#3883E1" transform="translate(680,252)"/>
<path d="M0,0 L-86,112 L-135,75 L-14,8 Z" fill="#1F2C39" transform="translate(673,693)"/>
</svg>
